<svg width="33" height="47" viewBox="0 0 33 47" fill="none" xmlns="http://www.w3.org/2000/svg">
<path d="M16.5 0C7.425 0 0 6 0 13.3333C0 17 1.815 20.3333 4.62 22.5C4.62 23.5 3.96 26.1667 0 30C3.96 29.8333 7.59 28.3333 10.725 25.8333C12.54 26.3333 14.52 26.6667 16.5 26.6667C25.575 26.6667 33 20.6667 33 13.3333C33 6 25.575 0 16.5 0ZM16.5 23.3333C9.24 23.3333 3.3 18.8333 3.3 13.3333C3.3 7.83333 9.24 3.33333 16.5 3.33333C23.76 3.33333 29.7 7.83333 29.7 13.3333C29.7 18.8333 23.76 23.3333 16.5 23.3333ZM16.83 5.83333C15.345 5.83333 14.19 6.16667 13.365 6.66667C12.375 7.33333 11.88 8.33333 12.045 9.5H15.345C15.345 9 15.51 8.66667 15.84 8.5C16.17 8.33333 16.5 8.16667 16.995 8.16667C17.49 8.16667 17.985 8.33333 18.315 8.66667C18.645 9 18.81 9.33333 18.81 9.83333C18.81 10.3333 18.645 10.6667 18.48 11C18.15 11.3333 17.82 11.6667 17.49 11.8333C16.665 12.3333 16.005 12.8333 15.675 13.1667C15.015 13.6667 14.85 14.1667 14.85 15H18.15C18.15 14.5 18.315 14.1667 18.315 13.8333C18.48 13.5 18.81 13.3333 19.14 13C19.965 12.6667 20.46 12.1667 20.955 11.5C21.45 10.8333 21.615 10.1667 21.615 9.5C21.615 8.33333 21.12 7.33333 20.295 6.66667C19.635 6.16667 18.315 5.83333 16.83 5.83333ZM14.85 16.6667V20H18.15V16.6667H14.85Z" fill="#BDBDBD"/>
<path d="M11.4199 39.8594V40.8311H7.64551V39.8594H11.4199ZM7.94824 36.8906V44H6.72266V36.8906H7.94824ZM12.3623 36.8906V44H11.1416V36.8906H12.3623ZM16.0342 44.0977C15.6436 44.0977 15.2904 44.0342 14.9746 43.9072C14.6621 43.777 14.3952 43.5964 14.1738 43.3652C13.9557 43.1341 13.7881 42.8623 13.6709 42.5498C13.5537 42.2373 13.4951 41.9004 13.4951 41.5391V41.3438C13.4951 40.9303 13.5553 40.556 13.6758 40.2207C13.7962 39.8854 13.9639 39.599 14.1787 39.3613C14.3936 39.1204 14.6475 38.9365 14.9404 38.8096C15.2334 38.6826 15.5508 38.6191 15.8926 38.6191C16.2702 38.6191 16.6006 38.6826 16.8838 38.8096C17.167 38.9365 17.4014 39.1156 17.5869 39.3467C17.7757 39.5745 17.9157 39.8464 18.0068 40.1621C18.1012 40.4779 18.1484 40.8262 18.1484 41.207V41.71H14.0664V40.8652H16.9863V40.7725C16.9798 40.5609 16.9375 40.3623 16.8594 40.1768C16.7845 39.9912 16.6689 39.8415 16.5127 39.7275C16.3564 39.6136 16.1481 39.5566 15.8877 39.5566C15.6924 39.5566 15.5182 39.599 15.3652 39.6836C15.2155 39.765 15.0902 39.8838 14.9893 40.04C14.8883 40.1963 14.8102 40.3851 14.7549 40.6064C14.7028 40.8245 14.6768 41.0703 14.6768 41.3438V41.5391C14.6768 41.7702 14.7077 41.985 14.7695 42.1836C14.8346 42.3789 14.929 42.5498 15.0527 42.6963C15.1764 42.8428 15.3262 42.9583 15.502 43.043C15.6777 43.1243 15.8779 43.165 16.1025 43.165C16.3857 43.165 16.638 43.1081 16.8594 42.9941C17.0807 42.8802 17.2728 42.7191 17.4355 42.5107L18.0557 43.1113C17.9417 43.2773 17.7936 43.4368 17.6113 43.5898C17.429 43.7396 17.2061 43.8617 16.9424 43.9561C16.682 44.0505 16.3792 44.0977 16.0342 44.0977ZM20.3262 36.5V44H19.1445V36.5H20.3262ZM22.7969 39.7324V46.0312H21.6201V38.7168H22.7041L22.7969 39.7324ZM26.2393 41.3096V41.4121C26.2393 41.7962 26.1937 42.1527 26.1025 42.4814C26.0146 42.807 25.8828 43.0918 25.707 43.3359C25.5345 43.5768 25.3213 43.764 25.0674 43.8975C24.8135 44.0309 24.5205 44.0977 24.1885 44.0977C23.8597 44.0977 23.5716 44.0374 23.3242 43.917C23.0801 43.7933 22.8734 43.6191 22.7041 43.3945C22.5348 43.1699 22.3981 42.9062 22.2939 42.6035C22.193 42.2975 22.1214 41.9622 22.0791 41.5977V41.2021C22.1214 40.8148 22.193 40.4632 22.2939 40.1475C22.3981 39.8317 22.5348 39.5599 22.7041 39.332C22.8734 39.1042 23.0801 38.9284 23.3242 38.8047C23.5684 38.681 23.8532 38.6191 24.1787 38.6191C24.5107 38.6191 24.8053 38.6842 25.0625 38.8145C25.3197 38.9414 25.5361 39.1237 25.7119 39.3613C25.8877 39.5957 26.0195 39.8789 26.1074 40.2109C26.1953 40.5397 26.2393 40.9059 26.2393 41.3096ZM25.0625 41.4121V41.3096C25.0625 41.0654 25.0397 40.8392 24.9941 40.6309C24.9486 40.4193 24.877 40.2337 24.7793 40.0742C24.6816 39.9147 24.5563 39.791 24.4033 39.7031C24.2536 39.612 24.0729 39.5664 23.8613 39.5664C23.653 39.5664 23.474 39.6022 23.3242 39.6738C23.1745 39.7422 23.0492 39.8382 22.9482 39.9619C22.8473 40.0856 22.7692 40.2305 22.7139 40.3965C22.6585 40.5592 22.6195 40.7367 22.5967 40.9287V41.876C22.6357 42.1104 22.7025 42.3252 22.7969 42.5205C22.8913 42.7158 23.0247 42.8721 23.1973 42.9893C23.373 43.1032 23.5977 43.1602 23.8711 43.1602C24.0827 43.1602 24.2633 43.1146 24.4131 43.0234C24.5628 42.9323 24.6849 42.807 24.7793 42.6475C24.877 42.4847 24.9486 42.2975 24.9941 42.0859C25.0397 41.8743 25.0625 41.6497 25.0625 41.4121Z" fill="#BDBDBD"/>
</svg>
