<svg width="37" height="49" viewBox="0 0 37 49" fill="none" xmlns="http://www.w3.org/2000/svg">
<path d="M9.22682 27.1065C11.6809 29.5606 14.91 31.0878 18.364 31.4278C21.8179 31.7678 25.2828 30.8996 28.1683 28.9712C31.0538 27.0427 33.1813 24.1733 34.1882 20.852C35.1952 17.5306 35.0192 13.9629 33.6904 10.7568C32.3616 7.55064 29.9621 4.9045 26.9008 3.26929C23.8396 1.63409 20.306 1.11101 16.9023 1.7892C13.4986 2.46739 10.4354 4.30488 8.23471 6.98853C6.034 9.67218 4.83198 13.0359 4.8335 16.5065V19.8332" stroke="#BDBDBD" stroke-width="3" stroke-linecap="round" stroke-linejoin="round"/>
<path d="M1.5 16.4999L4.83333 19.8332L8.16666 16.4999M18.1666 9.83322V18.1665H26.5" stroke="#BDBDBD" stroke-width="3" stroke-linecap="round" stroke-linejoin="round"/>
<path d="M6.91992 41.3594V42.3311H3.14551V41.3594H6.91992ZM3.44824 38.3906V45.5H2.22266V38.3906H3.44824ZM7.8623 38.3906V45.5H6.6416V38.3906H7.8623ZM10.4648 40.2168V45.5H9.2832V40.2168H10.4648ZM9.20508 38.8301C9.20508 38.651 9.26367 38.5029 9.38086 38.3857C9.5013 38.2653 9.66732 38.2051 9.87891 38.2051C10.0872 38.2051 10.2516 38.2653 10.3721 38.3857C10.4925 38.5029 10.5527 38.651 10.5527 38.8301C10.5527 39.0059 10.4925 39.1523 10.3721 39.2695C10.2516 39.3867 10.0872 39.4453 9.87891 39.4453C9.66732 39.4453 9.5013 39.3867 9.38086 39.2695C9.26367 39.1523 9.20508 39.0059 9.20508 38.8301ZM14.7178 44.0693C14.7178 43.9521 14.6885 43.8464 14.6299 43.752C14.5713 43.6543 14.459 43.5664 14.293 43.4883C14.1302 43.4102 13.8893 43.3385 13.5703 43.2734C13.2904 43.2116 13.0332 43.1383 12.7988 43.0537C12.5677 42.9658 12.3691 42.86 12.2031 42.7363C12.0371 42.6126 11.9085 42.4661 11.8174 42.2969C11.7262 42.1276 11.6807 41.9323 11.6807 41.7109C11.6807 41.4961 11.7279 41.2926 11.8223 41.1006C11.9167 40.9085 12.0518 40.7393 12.2275 40.5928C12.4033 40.4463 12.6165 40.3307 12.8672 40.2461C13.1211 40.1615 13.4043 40.1191 13.7168 40.1191C14.1595 40.1191 14.5387 40.194 14.8545 40.3438C15.1735 40.4902 15.4176 40.6904 15.5869 40.9443C15.7562 41.195 15.8408 41.4782 15.8408 41.7939H14.6641C14.6641 41.654 14.6283 41.5238 14.5566 41.4033C14.4883 41.2796 14.3841 41.1803 14.2441 41.1055C14.1042 41.0273 13.9284 40.9883 13.7168 40.9883C13.515 40.9883 13.3473 41.0208 13.2139 41.0859C13.0837 41.1478 12.986 41.2292 12.9209 41.3301C12.859 41.431 12.8281 41.5417 12.8281 41.6621C12.8281 41.75 12.8444 41.8298 12.877 41.9014C12.9128 41.9697 12.9714 42.0332 13.0527 42.0918C13.1341 42.1471 13.2448 42.1992 13.3848 42.248C13.528 42.2969 13.707 42.3441 13.9219 42.3896C14.3255 42.4743 14.6722 42.5833 14.9619 42.7168C15.2549 42.847 15.4795 43.0163 15.6357 43.2246C15.792 43.4297 15.8701 43.6901 15.8701 44.0059C15.8701 44.2402 15.8197 44.4551 15.7188 44.6504C15.6211 44.8424 15.4779 45.0101 15.2891 45.1533C15.1003 45.2933 14.874 45.4023 14.6104 45.4805C14.3499 45.5586 14.057 45.5977 13.7314 45.5977C13.2529 45.5977 12.8477 45.513 12.5156 45.3438C12.1836 45.1712 11.9313 44.9515 11.7588 44.6846C11.5895 44.4144 11.5049 44.1344 11.5049 43.8447H12.6426C12.6556 44.0628 12.7158 44.237 12.8232 44.3672C12.9339 44.4941 13.0706 44.5869 13.2334 44.6455C13.3994 44.7008 13.5703 44.7285 13.7461 44.7285C13.9577 44.7285 14.1351 44.7008 14.2783 44.6455C14.4215 44.5869 14.5306 44.5088 14.6055 44.4111C14.6803 44.3102 14.7178 44.1963 14.7178 44.0693ZM19.3223 40.2168V41.0762H16.3438V40.2168H19.3223ZM17.2031 38.9229H18.3799V44.04C18.3799 44.2028 18.4027 44.3281 18.4482 44.416C18.4971 44.5007 18.5638 44.5576 18.6484 44.5869C18.7331 44.6162 18.8324 44.6309 18.9463 44.6309C19.0277 44.6309 19.1058 44.626 19.1807 44.6162C19.2555 44.6064 19.3158 44.5967 19.3613 44.5869L19.3662 45.4854C19.2686 45.5146 19.1546 45.5407 19.0244 45.5635C18.8975 45.5863 18.751 45.5977 18.585 45.5977C18.3148 45.5977 18.0755 45.5505 17.8672 45.4561C17.6589 45.3584 17.4961 45.2005 17.3789 44.9824C17.2617 44.7643 17.2031 44.4746 17.2031 44.1133V38.9229ZM19.8887 42.917V42.8047C19.8887 42.4238 19.944 42.0706 20.0547 41.7451C20.1654 41.4163 20.3249 41.1315 20.5332 40.8906C20.7448 40.6465 21.002 40.4577 21.3047 40.3242C21.6107 40.1875 21.9557 40.1191 22.3398 40.1191C22.7272 40.1191 23.0723 40.1875 23.375 40.3242C23.681 40.4577 23.9398 40.6465 24.1514 40.8906C24.363 41.1315 24.5241 41.4163 24.6348 41.7451C24.7454 42.0706 24.8008 42.4238 24.8008 42.8047V42.917C24.8008 43.2979 24.7454 43.651 24.6348 43.9766C24.5241 44.3021 24.363 44.5869 24.1514 44.8311C23.9398 45.0719 23.6826 45.2607 23.3799 45.3975C23.0771 45.5309 22.7337 45.5977 22.3496 45.5977C21.9622 45.5977 21.6156 45.5309 21.3096 45.3975C21.0068 45.2607 20.7497 45.0719 20.5381 44.8311C20.3265 44.5869 20.1654 44.3021 20.0547 43.9766C19.944 43.651 19.8887 43.2979 19.8887 42.917ZM21.0654 42.8047V42.917C21.0654 43.1546 21.0898 43.3792 21.1387 43.5908C21.1875 43.8024 21.264 43.988 21.3682 44.1475C21.4723 44.307 21.6058 44.4323 21.7686 44.5234C21.9313 44.6146 22.125 44.6602 22.3496 44.6602C22.5677 44.6602 22.7565 44.6146 22.916 44.5234C23.0788 44.4323 23.2122 44.307 23.3164 44.1475C23.4206 43.988 23.4971 43.8024 23.5459 43.5908C23.598 43.3792 23.624 43.1546 23.624 42.917V42.8047C23.624 42.5703 23.598 42.349 23.5459 42.1406C23.4971 41.929 23.4189 41.7419 23.3115 41.5791C23.2074 41.4163 23.0739 41.2894 22.9111 41.1982C22.7516 41.1038 22.5612 41.0566 22.3398 41.0566C22.1185 41.0566 21.9264 41.1038 21.7637 41.1982C21.6042 41.2894 21.4723 41.4163 21.3682 41.5791C21.264 41.7419 21.1875 41.929 21.1387 42.1406C21.0898 42.349 21.0654 42.5703 21.0654 42.8047ZM26.9688 41.2227V45.5H25.792V40.2168H26.915L26.9688 41.2227ZM28.585 40.1826L28.5752 41.2764C28.5036 41.2633 28.4255 41.2536 28.3408 41.2471C28.2594 41.2406 28.1781 41.2373 28.0967 41.2373C27.8949 41.2373 27.7174 41.2666 27.5645 41.3252C27.4115 41.3805 27.2829 41.4619 27.1787 41.5693C27.0778 41.6735 26.9997 41.8005 26.9443 41.9502C26.889 42.0999 26.8564 42.2676 26.8467 42.4531L26.5781 42.4727C26.5781 42.1406 26.6107 41.833 26.6758 41.5498C26.7409 41.2666 26.8385 41.0176 26.9688 40.8027C27.1022 40.5879 27.2682 40.4202 27.4668 40.2998C27.6686 40.1794 27.9014 40.1191 28.165 40.1191C28.2367 40.1191 28.3132 40.1257 28.3945 40.1387C28.4792 40.1517 28.5426 40.1663 28.585 40.1826ZM30.9434 44.9238L32.3789 40.2168H33.6387L31.5195 46.3057C31.4707 46.4359 31.4072 46.5775 31.3291 46.7305C31.251 46.8835 31.1484 47.0283 31.0215 47.165C30.8978 47.305 30.7432 47.4173 30.5576 47.502C30.3721 47.5898 30.1475 47.6338 29.8838 47.6338C29.7796 47.6338 29.6787 47.624 29.5811 47.6045C29.4867 47.5882 29.3971 47.5703 29.3125 47.5508L29.3076 46.6523C29.3402 46.6556 29.3792 46.6589 29.4248 46.6621C29.4736 46.6654 29.5127 46.667 29.542 46.667C29.7373 46.667 29.9001 46.6426 30.0303 46.5938C30.1605 46.5482 30.2663 46.4733 30.3477 46.3691C30.4323 46.265 30.5039 46.125 30.5625 45.9492L30.9434 44.9238ZM30.1328 40.2168L31.3877 44.1719L31.5977 45.4121L30.7822 45.6221L28.8633 40.2168H30.1328Z" fill="#BDBDBD"/>
</svg>
