<svg width="30" height="47" viewBox="0 0 30 47" fill="none" xmlns="http://www.w3.org/2000/svg">
<path d="M16.0601 0.439184L29.5576 13.9393C30.5025 14.8843 29.8336 16.4999 28.4973 16.4999H26.9976V25.5C26.9976 26.6934 26.5236 27.838 25.6798 28.682C24.8361 29.5259 23.6917 30 22.4985 30H20.9987V19.4999C20.9988 18.3521 20.5603 17.2476 19.773 16.4125C18.9857 15.5773 17.9091 15.0747 16.7635 15.0073L16.4996 14.9998H13.5001C12.3069 14.9998 11.1625 15.4739 10.3187 16.3179C9.47497 17.1618 9.00095 18.3064 9.00095 19.4999V30H7.50123C6.30798 30 5.1636 29.5259 4.31984 28.682C3.47608 27.838 3.00207 26.6934 3.00207 25.5V16.4999H1.50234C0.167591 16.4999 -0.502785 14.8843 0.44204 13.9393L13.9395 0.439184C14.2208 0.157975 14.6022 0 14.9998 0C15.3975 0 15.7789 0.157975 16.0601 0.439184ZM16.4996 17.9999C16.8973 17.9999 17.2788 18.1579 17.56 18.4392C17.8413 18.7205 17.9993 19.1021 17.9993 19.4999V30H12.0004V19.4999C12.0004 19.1325 12.1353 18.7779 12.3794 18.5033C12.6235 18.2288 12.9598 18.0534 13.3247 18.0104L13.5001 17.9999H16.4996Z" fill="#104C19"/>
<path d="M6.41992 39.8594V40.8311H2.64551V39.8594H6.41992ZM2.94824 36.8906V44H1.72266V36.8906H2.94824ZM7.3623 36.8906V44H6.1416V36.8906H7.3623ZM8.48047 41.417V41.3047C8.48047 40.9238 8.53581 40.5706 8.64648 40.2451C8.75716 39.9163 8.91667 39.6315 9.125 39.3906C9.33659 39.1465 9.59375 38.9577 9.89648 38.8242C10.2025 38.6875 10.5475 38.6191 10.9316 38.6191C11.319 38.6191 11.6641 38.6875 11.9668 38.8242C12.2728 38.9577 12.5316 39.1465 12.7432 39.3906C12.9548 39.6315 13.1159 39.9163 13.2266 40.2451C13.3372 40.5706 13.3926 40.9238 13.3926 41.3047V41.417C13.3926 41.7979 13.3372 42.151 13.2266 42.4766C13.1159 42.8021 12.9548 43.0869 12.7432 43.3311C12.5316 43.5719 12.2744 43.7607 11.9717 43.8975C11.6689 44.0309 11.3255 44.0977 10.9414 44.0977C10.554 44.0977 10.2074 44.0309 9.90137 43.8975C9.59863 43.7607 9.34147 43.5719 9.12988 43.3311C8.91829 43.0869 8.75716 42.8021 8.64648 42.4766C8.53581 42.151 8.48047 41.7979 8.48047 41.417ZM9.65723 41.3047V41.417C9.65723 41.6546 9.68164 41.8792 9.73047 42.0908C9.7793 42.3024 9.85579 42.488 9.95996 42.6475C10.0641 42.807 10.1976 42.9323 10.3604 43.0234C10.5231 43.1146 10.7168 43.1602 10.9414 43.1602C11.1595 43.1602 11.3483 43.1146 11.5078 43.0234C11.6706 42.9323 11.804 42.807 11.9082 42.6475C12.0124 42.488 12.0889 42.3024 12.1377 42.0908C12.1898 41.8792 12.2158 41.6546 12.2158 41.417V41.3047C12.2158 41.0703 12.1898 40.849 12.1377 40.6406C12.0889 40.429 12.0107 40.2419 11.9033 40.0791C11.7992 39.9163 11.6657 39.7894 11.5029 39.6982C11.3434 39.6038 11.153 39.5566 10.9316 39.5566C10.7103 39.5566 10.5182 39.6038 10.3555 39.6982C10.196 39.7894 10.0641 39.9163 9.95996 40.0791C9.85579 40.2419 9.7793 40.429 9.73047 40.6406C9.68164 40.849 9.65723 41.0703 9.65723 41.3047ZM15.5557 39.791V44H14.3789V38.7168H15.4873L15.5557 39.791ZM15.3652 41.1631L14.9648 41.1582C14.9648 40.7936 15.0104 40.4567 15.1016 40.1475C15.1927 39.8382 15.3262 39.5697 15.502 39.3418C15.6777 39.1107 15.8958 38.9333 16.1562 38.8096C16.4199 38.6826 16.7243 38.6191 17.0693 38.6191C17.3102 38.6191 17.5299 38.6549 17.7285 38.7266C17.9303 38.7949 18.1045 38.904 18.251 39.0537C18.4007 39.2035 18.5146 39.3955 18.5928 39.6299C18.6742 39.8643 18.7148 40.1475 18.7148 40.4795V44H17.5381V40.582C17.5381 40.3249 17.499 40.123 17.4209 39.9766C17.346 39.8301 17.237 39.7259 17.0938 39.6641C16.9538 39.599 16.7861 39.5664 16.5908 39.5664C16.3695 39.5664 16.1807 39.6087 16.0244 39.6934C15.8714 39.778 15.7461 39.8936 15.6484 40.04C15.5508 40.1865 15.4792 40.3558 15.4336 40.5479C15.388 40.7399 15.3652 40.945 15.3652 41.1631ZM18.6416 40.8506L18.0898 40.9727C18.0898 40.6536 18.1338 40.3525 18.2217 40.0693C18.3128 39.7829 18.4447 39.5322 18.6172 39.3174C18.793 39.0993 19.0094 38.9284 19.2666 38.8047C19.5238 38.681 19.8184 38.6191 20.1504 38.6191C20.4206 38.6191 20.6615 38.6566 20.873 38.7314C21.0879 38.8031 21.2702 38.917 21.4199 39.0732C21.5697 39.2295 21.6836 39.4329 21.7617 39.6836C21.8398 39.931 21.8789 40.2305 21.8789 40.582V44H20.6973V40.5771C20.6973 40.3102 20.6582 40.1035 20.5801 39.957C20.5052 39.8105 20.3978 39.7096 20.2578 39.6543C20.1178 39.5957 19.9502 39.5664 19.7549 39.5664C19.5726 39.5664 19.4115 39.6006 19.2715 39.6689C19.1348 39.734 19.0192 39.8268 18.9248 39.9473C18.8304 40.0645 18.7588 40.1995 18.71 40.3525C18.6644 40.5055 18.6416 40.6715 18.6416 40.8506ZM25.4189 44.0977C25.0283 44.0977 24.6751 44.0342 24.3594 43.9072C24.0469 43.777 23.7799 43.5964 23.5586 43.3652C23.3405 43.1341 23.1729 42.8623 23.0557 42.5498C22.9385 42.2373 22.8799 41.9004 22.8799 41.5391V41.3438C22.8799 40.9303 22.9401 40.556 23.0605 40.2207C23.181 39.8854 23.3486 39.599 23.5635 39.3613C23.7783 39.1204 24.0322 38.9365 24.3252 38.8096C24.6182 38.6826 24.9355 38.6191 25.2773 38.6191C25.6549 38.6191 25.9854 38.6826 26.2686 38.8096C26.5518 38.9365 26.7861 39.1156 26.9717 39.3467C27.1605 39.5745 27.3005 39.8464 27.3916 40.1621C27.486 40.4779 27.5332 40.8262 27.5332 41.207V41.71H23.4512V40.8652H26.3711V40.7725C26.3646 40.5609 26.3223 40.3623 26.2441 40.1768C26.1693 39.9912 26.0537 39.8415 25.8975 39.7275C25.7412 39.6136 25.5329 39.5566 25.2725 39.5566C25.0771 39.5566 24.903 39.599 24.75 39.6836C24.6003 39.765 24.4749 39.8838 24.374 40.04C24.2731 40.1963 24.195 40.3851 24.1396 40.6064C24.0876 40.8245 24.0615 41.0703 24.0615 41.3438V41.5391C24.0615 41.7702 24.0924 41.985 24.1543 42.1836C24.2194 42.3789 24.3138 42.5498 24.4375 42.6963C24.5612 42.8428 24.7109 42.9583 24.8867 43.043C25.0625 43.1243 25.2627 43.165 25.4873 43.165C25.7705 43.165 26.0228 43.1081 26.2441 42.9941C26.4655 42.8802 26.6576 42.7191 26.8203 42.5107L27.4404 43.1113C27.3265 43.2773 27.1784 43.4368 26.9961 43.5898C26.8138 43.7396 26.5908 43.8617 26.3271 43.9561C26.0667 44.0505 25.764 44.0977 25.4189 44.0977Z" fill="#104C19"/>
</svg>
