<svg width="38" height="47" viewBox="0 0 38 47" fill="none" xmlns="http://www.w3.org/2000/svg">
<path d="M16.7103 30C16.0249 30 15.435 29.775 14.9405 29.325C14.446 28.875 14.1475 28.325 14.0449 27.675L13.7022 25.2C13.3722 25.075 13.0615 24.925 12.7701 24.75C12.4786 24.575 12.1928 24.3875 11.9126 24.1875L9.55173 25.1625C8.9171 25.4375 8.28248 25.4625 7.64785 25.2375C7.01322 25.0125 6.51821 24.6125 6.16282 24.0375L4.37316 20.9625C4.01777 20.3875 3.91623 19.775 4.06854 19.125C4.22085 18.475 4.56355 17.9375 5.09664 17.5125L7.11476 16.0125C7.08937 15.8375 7.07668 15.6685 7.07668 15.5055V14.493C7.07668 14.331 7.08937 14.1625 7.11476 13.9875L5.09664 12.4875C4.56355 12.0625 4.22085 11.525 4.06854 10.875C3.91623 10.225 4.01777 9.6125 4.37316 9.0375L6.16282 5.9625C6.51821 5.3875 7.01322 4.9875 7.64785 4.7625C8.28248 4.5375 8.9171 4.5625 9.55173 4.8375L11.9126 5.8125C12.1918 5.6125 12.4837 5.425 12.7883 5.25C13.093 5.075 13.3976 4.925 13.7022 4.8L14.0449 2.325C14.1464 1.675 14.445 1.125 14.9405 0.675C15.436 0.225 16.026 0 16.7103 0H20.2897C20.9751 0 21.5655 0.225 22.061 0.675C22.5565 1.125 22.8546 1.675 22.9551 2.325L23.2978 4.8C23.6278 4.925 23.939 5.075 24.2315 5.25C24.5239 5.425 24.8092 5.6125 25.0874 5.8125L27.4483 4.8375C28.0829 4.5625 28.7175 4.5375 29.3522 4.7625C29.9868 4.9875 30.4818 5.3875 30.8372 5.9625L32.6268 9.0375C32.9822 9.6125 33.0838 10.225 32.9315 10.875C32.7792 11.525 32.4364 12.0625 31.9034 12.4875L29.8852 13.9875C29.9106 14.1625 29.9233 14.3315 29.9233 14.4945V15.5055C29.9233 15.6685 29.8979 15.8375 29.8472 16.0125L31.8653 17.5125C32.3984 17.9375 32.7411 18.475 32.8934 19.125C33.0457 19.775 32.9442 20.3875 32.5888 20.9625L30.761 24.0375C30.4056 24.6125 29.9106 25.0125 29.276 25.2375C28.6414 25.4625 28.0067 25.4375 27.3721 25.1625L25.0874 24.1875C24.8082 24.3875 24.5163 24.575 24.2117 24.75C23.907 24.925 23.6024 25.075 23.2978 25.2L22.9551 27.675C22.8536 28.325 22.5555 28.875 22.061 29.325C21.5665 29.775 20.9761 30 20.2897 30H16.7103ZM18.5762 20.25C20.0485 20.25 21.3051 19.7375 22.3458 18.7125C23.3866 17.6875 23.907 16.45 23.907 15C23.907 13.55 23.3866 12.3125 22.3458 11.2875C21.3051 10.2625 20.0485 9.75 18.5762 9.75C17.0784 9.75 15.8153 10.2625 14.7867 11.2875C13.7581 12.3125 13.2443 13.55 13.2453 15C13.2463 16.45 13.7606 17.6875 14.7882 18.7125C15.8158 19.7375 17.0784 20.25 18.5762 20.25Z" fill="#BDBDBD"/>
<path d="M4.46289 42.1689C4.46289 42.0225 4.4401 41.8923 4.39453 41.7783C4.35221 41.6644 4.27572 41.5602 4.16504 41.4658C4.05436 41.3714 3.89811 41.2803 3.69629 41.1924C3.49772 41.1012 3.24382 41.0085 2.93457 40.9141C2.59603 40.8099 2.28353 40.6943 1.99707 40.5674C1.71387 40.4372 1.46647 40.2874 1.25488 40.1182C1.04329 39.9456 0.878906 39.7487 0.761719 39.5273C0.644531 39.3027 0.585938 39.0439 0.585938 38.751C0.585938 38.4613 0.646159 38.1976 0.766602 37.96C0.890299 37.7223 1.06445 37.5173 1.28906 37.3447C1.51693 37.1689 1.78548 37.0339 2.09473 36.9395C2.40397 36.8418 2.74577 36.793 3.12012 36.793C3.64746 36.793 4.10156 36.8906 4.48242 37.0859C4.86654 37.2812 5.16113 37.5433 5.36621 37.8721C5.57454 38.2008 5.67871 38.5638 5.67871 38.9609H4.46289C4.46289 38.7266 4.41243 38.5199 4.31152 38.3408C4.21387 38.1585 4.06413 38.0153 3.8623 37.9111C3.66374 37.807 3.41146 37.7549 3.10547 37.7549C2.81576 37.7549 2.57487 37.7988 2.38281 37.8867C2.19076 37.9746 2.04753 38.0934 1.95312 38.2432C1.85872 38.3929 1.81152 38.5622 1.81152 38.751C1.81152 38.8844 1.84245 39.0065 1.9043 39.1172C1.96615 39.2246 2.06055 39.3255 2.1875 39.4199C2.31445 39.5111 2.47396 39.5973 2.66602 39.6787C2.85807 39.7601 3.08431 39.8382 3.34473 39.9131C3.73861 40.0303 4.08203 40.1605 4.375 40.3037C4.66797 40.4437 4.91211 40.6032 5.10742 40.7822C5.30273 40.9613 5.44922 41.1647 5.54688 41.3926C5.64453 41.6172 5.69336 41.8727 5.69336 42.1592C5.69336 42.4587 5.63314 42.7288 5.5127 42.9697C5.39225 43.2074 5.21973 43.4108 4.99512 43.5801C4.77376 43.7461 4.50684 43.8747 4.19434 43.9658C3.88509 44.0537 3.54004 44.0977 3.15918 44.0977C2.81738 44.0977 2.48047 44.0521 2.14844 43.9609C1.81966 43.8698 1.52018 43.7314 1.25 43.5459C0.979818 43.3571 0.764974 43.1227 0.605469 42.8428C0.445964 42.5596 0.366211 42.2292 0.366211 41.8516H1.5918C1.5918 42.0827 1.63086 42.2796 1.70898 42.4424C1.79036 42.6051 1.90267 42.7386 2.0459 42.8428C2.18913 42.9437 2.35514 43.0186 2.54395 43.0674C2.736 43.1162 2.94108 43.1406 3.15918 43.1406C3.44564 43.1406 3.6849 43.0999 3.87695 43.0186C4.07227 42.9372 4.21875 42.8232 4.31641 42.6768C4.41406 42.5303 4.46289 42.361 4.46289 42.1689ZM8.98926 44.0977C8.59863 44.0977 8.24544 44.0342 7.92969 43.9072C7.61719 43.777 7.35026 43.5964 7.12891 43.3652C6.91081 43.1341 6.74316 42.8623 6.62598 42.5498C6.50879 42.2373 6.4502 41.9004 6.4502 41.5391V41.3438C6.4502 40.9303 6.51042 40.556 6.63086 40.2207C6.7513 39.8854 6.91895 39.599 7.13379 39.3613C7.34863 39.1204 7.60254 38.9365 7.89551 38.8096C8.18848 38.6826 8.50586 38.6191 8.84766 38.6191C9.22526 38.6191 9.55566 38.6826 9.83887 38.8096C10.1221 38.9365 10.3564 39.1156 10.542 39.3467C10.7308 39.5745 10.8708 39.8464 10.9619 40.1621C11.0563 40.4779 11.1035 40.8262 11.1035 41.207V41.71H7.02148V40.8652H9.94141V40.7725C9.9349 40.5609 9.89258 40.3623 9.81445 40.1768C9.73958 39.9912 9.62402 39.8415 9.46777 39.7275C9.31152 39.6136 9.10319 39.5566 8.84277 39.5566C8.64746 39.5566 8.47331 39.599 8.32031 39.6836C8.17057 39.765 8.04525 39.8838 7.94434 40.04C7.84342 40.1963 7.7653 40.3851 7.70996 40.6064C7.65788 40.8245 7.63184 41.0703 7.63184 41.3438V41.5391C7.63184 41.7702 7.66276 41.985 7.72461 42.1836C7.78971 42.3789 7.88411 42.5498 8.00781 42.6963C8.13151 42.8428 8.28125 42.9583 8.45703 43.043C8.63281 43.1243 8.83301 43.165 9.05762 43.165C9.34082 43.165 9.5931 43.1081 9.81445 42.9941C10.0358 42.8802 10.2279 42.7191 10.3906 42.5107L11.0107 43.1113C10.8968 43.2773 10.7487 43.4368 10.5664 43.5898C10.3841 43.7396 10.1611 43.8617 9.89746 43.9561C9.63704 44.0505 9.33431 44.0977 8.98926 44.0977ZM14.4434 38.7168V39.5762H11.4648V38.7168H14.4434ZM12.3242 37.4229H13.501V42.54C13.501 42.7028 13.5238 42.8281 13.5693 42.916C13.6182 43.0007 13.6849 43.0576 13.7695 43.0869C13.8542 43.1162 13.9535 43.1309 14.0674 43.1309C14.1488 43.1309 14.2269 43.126 14.3018 43.1162C14.3766 43.1064 14.4368 43.0967 14.4824 43.0869L14.4873 43.9854C14.3896 44.0146 14.2757 44.0407 14.1455 44.0635C14.0186 44.0863 13.8721 44.0977 13.7061 44.0977C13.4359 44.0977 13.1966 44.0505 12.9883 43.9561C12.7799 43.8584 12.6172 43.7005 12.5 43.4824C12.3828 43.2643 12.3242 42.9746 12.3242 42.6133V37.4229ZM17.7734 38.7168V39.5762H14.7949V38.7168H17.7734ZM15.6543 37.4229H16.8311V42.54C16.8311 42.7028 16.8538 42.8281 16.8994 42.916C16.9482 43.0007 17.015 43.0576 17.0996 43.0869C17.1842 43.1162 17.2835 43.1309 17.3975 43.1309C17.4788 43.1309 17.557 43.126 17.6318 43.1162C17.7067 43.1064 17.7669 43.0967 17.8125 43.0869L17.8174 43.9854C17.7197 44.0146 17.6058 44.0407 17.4756 44.0635C17.3486 44.0863 17.2021 44.0977 17.0361 44.0977C16.766 44.0977 16.5267 44.0505 16.3184 43.9561C16.11 43.8584 15.9473 43.7005 15.8301 43.4824C15.7129 43.2643 15.6543 42.9746 15.6543 42.6133V37.4229ZM19.9414 38.7168V44H18.7598V38.7168H19.9414ZM18.6816 37.3301C18.6816 37.151 18.7402 37.0029 18.8574 36.8857C18.9779 36.7653 19.1439 36.7051 19.3555 36.7051C19.5638 36.7051 19.7282 36.7653 19.8486 36.8857C19.9691 37.0029 20.0293 37.151 20.0293 37.3301C20.0293 37.5059 19.9691 37.6523 19.8486 37.7695C19.7282 37.8867 19.5638 37.9453 19.3555 37.9453C19.1439 37.9453 18.9779 37.8867 18.8574 37.7695C18.7402 37.6523 18.6816 37.5059 18.6816 37.3301ZM22.3975 39.8447V44H21.2207V38.7168H22.3291L22.3975 39.8447ZM22.1875 41.1631L21.8066 41.1582C21.8099 40.7839 21.862 40.4404 21.9629 40.1279C22.0671 39.8154 22.2103 39.5469 22.3926 39.3223C22.5781 39.0977 22.7995 38.9251 23.0566 38.8047C23.3138 38.681 23.6003 38.6191 23.916 38.6191C24.1699 38.6191 24.3994 38.6549 24.6045 38.7266C24.8128 38.7949 24.9902 38.9072 25.1367 39.0635C25.2865 39.2197 25.4004 39.4232 25.4785 39.6738C25.5566 39.9212 25.5957 40.2256 25.5957 40.5869V44H24.4141V40.582C24.4141 40.3281 24.3766 40.1279 24.3018 39.9814C24.2301 39.8317 24.1243 39.7259 23.9844 39.6641C23.8477 39.599 23.6768 39.5664 23.4717 39.5664C23.2699 39.5664 23.0892 39.6087 22.9297 39.6934C22.7702 39.778 22.6351 39.8936 22.5244 40.04C22.417 40.1865 22.334 40.3558 22.2754 40.5479C22.2168 40.7399 22.1875 40.945 22.1875 41.1631ZM30.1807 38.7168H31.25V43.8535C31.25 44.3288 31.1491 44.7324 30.9473 45.0645C30.7454 45.3965 30.4639 45.6488 30.1025 45.8213C29.7412 45.9971 29.3229 46.085 28.8477 46.085C28.6458 46.085 28.4212 46.0557 28.1738 45.9971C27.9297 45.9385 27.6921 45.8441 27.4609 45.7139C27.2331 45.5869 27.0426 45.4193 26.8896 45.2109L27.4414 44.5176C27.6302 44.7422 27.8385 44.9066 28.0664 45.0107C28.2943 45.1149 28.5335 45.167 28.7842 45.167C29.0544 45.167 29.2839 45.1165 29.4727 45.0156C29.6647 44.918 29.8128 44.7731 29.917 44.5811C30.0212 44.389 30.0732 44.1546 30.0732 43.8779V39.9131L30.1807 38.7168ZM26.5918 41.417V41.3145C26.5918 40.9141 26.6406 40.5495 26.7383 40.2207C26.8359 39.8887 26.9759 39.6038 27.1582 39.3662C27.3405 39.1253 27.5618 38.9414 27.8223 38.8145C28.0827 38.6842 28.3773 38.6191 28.7061 38.6191C29.0479 38.6191 29.3392 38.681 29.5801 38.8047C29.8242 38.9284 30.0277 39.1058 30.1904 39.3369C30.3532 39.5648 30.4801 39.8382 30.5713 40.1572C30.6657 40.473 30.7357 40.8245 30.7812 41.2119V41.5391C30.7389 41.9167 30.6673 42.2617 30.5664 42.5742C30.4655 42.8867 30.332 43.1569 30.166 43.3848C30 43.6126 29.7949 43.7884 29.5508 43.9121C29.3099 44.0358 29.0251 44.0977 28.6963 44.0977C28.374 44.0977 28.0827 44.0309 27.8223 43.8975C27.5651 43.764 27.3438 43.5768 27.1582 43.3359C26.9759 43.0951 26.8359 42.8118 26.7383 42.4863C26.6406 42.1576 26.5918 41.8011 26.5918 41.417ZM27.7686 41.3145V41.417C27.7686 41.6579 27.7913 41.8825 27.8369 42.0908C27.8857 42.2992 27.959 42.4831 28.0566 42.6426C28.1576 42.7988 28.2845 42.9225 28.4375 43.0137C28.5938 43.1016 28.7777 43.1455 28.9893 43.1455C29.266 43.1455 29.4922 43.0869 29.668 42.9697C29.847 42.8525 29.9837 42.6947 30.0781 42.4961C30.1758 42.2943 30.2441 42.0697 30.2832 41.8223V40.9385C30.2637 40.7464 30.223 40.5674 30.1611 40.4014C30.1025 40.2354 30.0228 40.0905 29.9219 39.9668C29.821 39.8398 29.694 39.7422 29.541 39.6738C29.388 39.6022 29.2074 39.5664 28.999 39.5664C28.7874 39.5664 28.6035 39.612 28.4473 39.7031C28.291 39.7943 28.1624 39.9196 28.0615 40.0791C27.9639 40.2386 27.8906 40.4242 27.8418 40.6357C27.793 40.8473 27.7686 41.0736 27.7686 41.3145ZM35.4346 42.5693C35.4346 42.4521 35.4053 42.3464 35.3467 42.252C35.2881 42.1543 35.1758 42.0664 35.0098 41.9883C34.847 41.9102 34.6061 41.8385 34.2871 41.7734C34.0072 41.7116 33.75 41.6383 33.5156 41.5537C33.2845 41.4658 33.0859 41.36 32.9199 41.2363C32.7539 41.1126 32.6253 40.9661 32.5342 40.7969C32.443 40.6276 32.3975 40.4323 32.3975 40.2109C32.3975 39.9961 32.4447 39.7926 32.5391 39.6006C32.6335 39.4085 32.7686 39.2393 32.9443 39.0928C33.1201 38.9463 33.3333 38.8307 33.584 38.7461C33.8379 38.6615 34.1211 38.6191 34.4336 38.6191C34.8763 38.6191 35.2555 38.694 35.5713 38.8438C35.8903 38.9902 36.1344 39.1904 36.3037 39.4443C36.473 39.695 36.5576 39.9782 36.5576 40.2939H35.3809C35.3809 40.154 35.3451 40.0238 35.2734 39.9033C35.2051 39.7796 35.1009 39.6803 34.9609 39.6055C34.821 39.5273 34.6452 39.4883 34.4336 39.4883C34.2318 39.4883 34.0641 39.5208 33.9307 39.5859C33.8005 39.6478 33.7028 39.7292 33.6377 39.8301C33.5758 39.931 33.5449 40.0417 33.5449 40.1621C33.5449 40.25 33.5612 40.3298 33.5938 40.4014C33.6296 40.4697 33.6882 40.5332 33.7695 40.5918C33.8509 40.6471 33.9616 40.6992 34.1016 40.748C34.2448 40.7969 34.4238 40.8441 34.6387 40.8896C35.0423 40.9743 35.389 41.0833 35.6787 41.2168C35.9717 41.347 36.1963 41.5163 36.3525 41.7246C36.5088 41.9297 36.5869 42.1901 36.5869 42.5059C36.5869 42.7402 36.5365 42.9551 36.4355 43.1504C36.3379 43.3424 36.1947 43.5101 36.0059 43.6533C35.8171 43.7933 35.5908 43.9023 35.3271 43.9805C35.0667 44.0586 34.7738 44.0977 34.4482 44.0977C33.9697 44.0977 33.5645 44.013 33.2324 43.8438C32.9004 43.6712 32.6481 43.4515 32.4756 43.1846C32.3063 42.9144 32.2217 42.6344 32.2217 42.3447H33.3594C33.3724 42.5628 33.4326 42.737 33.54 42.8672C33.6507 42.9941 33.7874 43.0869 33.9502 43.1455C34.1162 43.2008 34.2871 43.2285 34.4629 43.2285C34.6745 43.2285 34.8519 43.2008 34.9951 43.1455C35.1383 43.0869 35.2474 43.0088 35.3223 42.9111C35.3971 42.8102 35.4346 42.6963 35.4346 42.5693Z" fill="#BDBDBD"/>
</svg>
